<?xml version="1.0" encoding="UTF-8"?>
<!DOCTYPE svg PUBLIC "-//W3C//DTD SVG 1.1//EN" "http://www.w3.org/Graphics/SVG/1.1/DTD/svg11.dtd">
<!-- Creator: CorelDRAW -->
<svg xmlns="http://www.w3.org/2000/svg" xml:space="preserve" width="1.70666in" height="1.70666in" version="1.1" style="shape-rendering:geometricPrecision; text-rendering:geometricPrecision; image-rendering:optimizeQuality; fill-rule:evenodd; clip-rule:evenodd"
viewBox="0 0 1706.66 1706.66"
 xmlns:xlink="http://www.w3.org/1999/xlink"
 xmlns:xodm="http://www.corel.com/coreldraw/odm/2003">
 <defs>
  <style type="text/css">
   <![CDATA[
    .fil0 {fill:black}
   ]]>
  </style>
 </defs>
 <g id="Layer_x0020_1">
  <metadata id="CorelCorpID_0Corel-Layer"/>
  <path class="fil0" d="M1462.95 1627.76l-1261.25 0c-8.93,0 -16.78,-5.93 -19.23,-14.51l-60.06 -210.21c-3.64,-12.75 5.96,-25.5 19.22,-25.5l1381.36 0c13.27,0 22.86,12.75 19.22,25.5l-60.06 210.21c-2.43,8.58 -10.29,14.51 -19.2,14.51zm-1246.17 -40.01l1231.08 0 48.62 -170.19 -1328.33 0 48.63 170.19z"/>
  <path class="fil0" d="M1686.65 1417.56l-1666.65 0c-11.04,0 -20,-8.97 -20,-20l0 -210.21c0,-11.04 8.96,-20 20,-20l1666.65 0c11.04,0 20,8.97 20,20l0 210.21c0,11.03 -8.96,20 -20,20zm-1646.65 -40.02l1626.65 0 0 -170.19 -1626.65 0 0 170.19z"/>
  <path class="fil0" d="M386.39 1207.33l-146.18 0c-11.04,0 -20,-8.97 -20,-20l0 -76.31c0,-11.04 8.96,-20 20,-20l146.18 -0.01c11.04,0 20,8.97 20,20l0 76.3c0,11.05 -8.94,20 -20,20zm-126.18 -40.01l106.19 0 0 -36.3 -106.19 0 0 36.3z"/>
  <path class="fil0" d="M313.31 1131.03c-11.04,0 -20,-8.97 -20,-20l0 -126.29c0,-5.92 2.63,-11.53 7.17,-15.33l137.83 -115.39c20.11,-16.84 45.78,13.84 25.67,30.68l-130.68 109.4 0 116.94c0.02,11.04 -8.94,20 -19.98,20z"/>
  <path class="fil0" d="M521.63 924.59c-59.61,0 -108.11,-48.5 -108.11,-108.13 0,-59.63 48.5,-108.11 108.11,-108.11 59.61,0 108.11,48.5 108.11,108.11 0,59.61 -48.5,108.13 -108.11,108.13zm0 -176.24c-89.64,0 -89.64,136.22 0,136.22 89.64,0 89.64,-136.22 0,-136.22z"/>
  <path class="fil0" d="M1013.04 439.47c-6.02,0 -11.94,-2.69 -15.89,-7.83 -12.04,-15.72 -30.3,-15.72 -42.35,0 -15.94,20.82 -47.72,-3.52 -31.75,-24.33 50.03,-65.23 136.18,1.94 102.13,28.04 -3.63,2.78 -7.89,4.13 -12.15,4.13z"/>
  <path class="fil0" d="M975.98 527.07c-26.07,0 -20,-33.43 -20,-59.48 0,-26.33 40,-26.33 40,0 0,26.07 6.07,59.48 -20,59.48z"/>
  <path class="fil0" d="M1166.91 528.17c-26.63,0 -20,-35.54 -20,-65.14 0,-26.33 40,-26.33 40,0 0,29.65 6.62,65.14 -20,65.14z"/>
  <path class="fil0" d="M1203.97 439.47c-6.02,0 -11.94,-2.69 -15.89,-7.83 -12.04,-15.72 -30.31,-15.72 -42.35,0 -15.92,20.82 -47.72,-3.51 -31.75,-24.33 50.02,-65.23 136.18,1.94 102.13,28.04 -3.63,2.78 -7.9,4.13 -12.15,4.13z"/>
  <path class="fil0" d="M1071.44 672.3c-41.78,0 -94.21,-43.51 -66.14,-65.04 24.46,-18.77 32.18,25.04 66.15,25.04 34.03,0 41.66,-43.81 66.17,-25.04 28.09,21.5 -24.35,65.04 -66.18,65.04z"/>
  <path class="fil0" d="M1466.45 1207.35l-790.66 0c-11.04,0 -20,-8.97 -20,-20l0 -206.22c0,-105.15 85.55,-190.7 190.7,-190.7l98.82 0c26.33,0 26.32,40 0,40l-98.82 0c-83.09,0 -150.72,67.61 -150.72,150.72l0 186.21 750.65 -0.01 0 -186.22c0,-82.75 -67.32,-150.07 -150.07,-150.07l-98.82 0c-26.33,0 -26.32,-40 0,-40l98.82 0c104.8,0 190.08,85.26 190.08,190.07l0 206.22c0.01,11.05 -8.96,20 -19.99,20z"/>
  <path class="fil0" d="M1119.26 887.69c-19.26,0 -27.44,-24.87 -11.73,-36.23l78.3 -56.61c21.26,-15.35 44.7,17.04 23.44,32.42 -14.23,10.3 -77.19,60.42 -90.02,60.42zm-96.3 -0.45c-12.94,0 -75.25,-50.3 -89.46,-60.7 -21.17,-15.5 2.44,-47.76 23.62,-32.29l77.65 56.83c15.61,11.43 7.36,36.16 -11.82,36.16z"/>
  <path class="fil0" d="M1212.98 975.31c-7.94,0 -86.84,-31.01 -100.71,-36.17 -10.35,-3.85 -15.61,-15.36 -11.76,-25.74 3.85,-10.35 15.36,-15.61 25.74,-11.76l72.59 27.03 29.6 -122.3c6.2,-25.64 45.05,-16.15 38.87,9.4l-34.89 144.22c-2.18,8.97 -10.26,15.32 -19.44,15.32z"/>
  <path class="fil0" d="M929.27 975.31c-9.18,0 -17.26,-6.3 -19.45,-15.31l-34.89 -144.22c-6.2,-25.56 32.69,-35.05 38.87,-9.4l29.59 122.3 72.58 -27.03c10.35,-3.87 21.87,1.41 25.74,11.76 3.85,10.36 -1.42,21.87 -11.76,25.74 -13.85,5.17 -92.72,36.15 -100.69,36.15z"/>
  <path class="fil0" d="M1197.56 831.06c-37.13,0 -72.6,-126.08 -26.24,-123.91 35.37,1.66 1.41,46.53 41.1,90.5 11.61,12.86 2.38,33.41 -14.86,33.41z"/>
  <path class="fil0" d="M945.33 830.41c-17.17,0 -26.49,-20.5 -14.85,-33.41 39.89,-44.23 5.64,-90.35 41.56,-92.3 46.05,-2.49 10.59,125.71 -26.71,125.71z"/>
  <path class="fil0" d="M1074.8 769.3c-100.76,0 -202.71,-61.47 -209.19,-179.11 -74.82,-43.93 -72.6,-103.47 -19.82,-145.93 5.15,-70.24 60.11,-90.72 48.61,-192.86 -2.27,-20.2 23.83,-30.55 36.01,-14.04 1.65,2.23 42.51,55.9 117.7,55.9 48.92,0 101.85,-22.78 157.29,-67.68 7.94,-6.43 19.47,-5.85 26.74,1.4 53.79,53.79 64.26,155.39 65.23,217.51 52.63,42.67 54.42,101.98 -20.08,145.69 -5.73,111.94 -94.69,179.12 -202.48,179.12zm-139.48 -472.95c-6.14,79.9 -50.08,105.73 -49.87,158.19 0.1,25.68 -91.57,53.13 9.14,105.98 6.6,3.46 10.71,10.28 10.71,17.71 0,195.19 332.29,207.75 332.29,0 0,-25.96 55.8,-29.75 57.51,-65.04 1.49,-30.59 -37.66,-37.42 -37.66,-58.58 0,-81.86 -15.25,-148.13 -42.3,-185.94 -91.62,68.43 -193.83,90.11 -279.8,27.68z"/>
  <path class="fil0" d="M1277.44 474.62c-14.94,0 -24.82,-16.05 -17.6,-29.47 124.6,-231.52 -83.35,-431.52 -280.76,-265.05 -11.52,9.72 -29.3,3.64 -32.46,-11.1 -23.36,-109.04 -232.02,65.86 -65.59,273.09 16.43,20.45 -14.79,45.47 -31.19,25.03 -197.27,-245.91 56.48,-461.43 125.64,-334.89 225.02,-161.02 460.83,68.83 319.58,331.85 -3.6,6.72 -10.49,10.54 -17.61,10.54z"/>
  <path class="fil0" d="M1071.13 1169.82c-6.44,0 -12.3,-3.02 -16.19,-8.22l-60.56 -79.18c-3.96,-5.17 -5.16,-11.94 -3.18,-18.17l37.14 -117.9c7.91,-25.13 46.06,-13.09 38.13,12.02l-34 107.98 38.65 50.54 38.67 -50.54 -34 -107.98c-7.89,-25.08 30.19,-37.19 38.14,-12.02l37.14 117.9c1.97,6.21 0.78,13 -3.18,18.17 -10.01,13.07 -59.04,81.12 -68.14,85.44 -2.76,1.32 -5.7,1.96 -8.62,1.96z"/>
  <path class="fil0" d="M788.4 1207.35c-11.04,0 -20,-8.97 -20,-20l0 -142.39c0,-26.33 40,-26.32 40,0l0 142.39c0,11.05 -8.94,20 -20,20z"/>
  <path class="fil0" d="M1353.84 1207.35c-11.04,0 -20,-8.97 -20,-20l0 -142.39c0,-26.33 40,-26.32 40,0l0 142.39c0.02,11.05 -8.96,20 -20,20z"/>
  <path class="fil0" d="M1109.5 972.35c-120.8,0 -106.53,13.96 -106.53,-111.39 0,-16.41 13.35,-29.75 29.76,-29.75 120.82,0 106.53,-13.96 106.53,111.38 0,16.41 -13.35,29.76 -29.76,29.76zm-66.52 -40.02l56.26 0 0 -61.12 -56.26 0 0 61.12z"/>
 </g>
</svg>
